<?xml version="1.0" encoding="iso-8859-1"?>
<!-- Generator: Adobe Illustrator 18.0.0, SVG Export Plug-In . SVG Version: 6.00 Build 0)  -->
<!DOCTYPE svg PUBLIC "-//W3C//DTD SVG 1.1//EN" "http://www.w3.org/Graphics/SVG/1.1/DTD/svg11.dtd">
<svg version="1.1" id="Capa_1" xmlns="http://www.w3.org/2000/svg" xmlns:xlink="http://www.w3.org/1999/xlink" x="0px" y="0px"
	 viewBox="0 0 473.506 473.506" style="enable-background:new 0 0 473.506 473.506;" xml:space="preserve">
<g>
	<path d="M17.765,92.069h184.13c9.811,0,17.764-7.953,17.764-17.765V20.397c0-9.811-7.953-17.765-17.764-17.765H17.765
		C7.954,2.632,0,10.585,0,20.397v53.908C0,84.116,7.954,92.069,17.765,92.069z"/>
	<path d="M270.301,92.069h184.131c9.811,0,17.764-7.953,17.764-17.765V20.397c0-9.811-7.953-17.765-17.764-17.765H270.301
		c-9.811,0-17.764,7.953-17.764,17.765v53.908C252.537,84.116,260.49,92.069,270.301,92.069z"/>
	<path d="M329.474,128.9H145.343c-9.811,0-17.764,7.953-17.764,17.764v53.909c0,9.811,7.954,17.765,17.764,17.765h184.131
		c9.811,0,17.764-7.954,17.764-17.765v-53.909C347.238,136.854,339.284,128.9,329.474,128.9z"/>
	<path d="M397.879,128.9c-9.811,0-17.764,7.953-17.764,17.764v53.909c0,9.811,7.954,17.765,17.764,17.765h75.627V128.9H397.879z"/>
	<path d="M1.311,128.9v89.438h75.627c9.811,0,17.764-7.954,17.764-17.765v-53.909c0-9.811-7.953-17.764-17.764-17.764H1.311z"/>
	<path d="M329.474,381.437H145.343c-9.811,0-17.764,7.953-17.764,17.764v53.909c0,9.812,7.954,17.765,17.764,17.765h184.131
		c9.811,0,17.764-7.953,17.764-17.765V399.2C347.238,389.39,339.284,381.437,329.474,381.437z"/>
	<path d="M380.115,399.2v53.909c0,9.812,7.954,17.765,17.764,17.765h75.627v-89.438h-75.627
		C388.068,381.437,380.115,389.39,380.115,399.2z"/>
	<path d="M76.938,381.437H1.311v89.438h75.627c9.811,0,17.764-7.953,17.764-17.765V399.2
		C94.701,389.39,86.748,381.437,76.938,381.437z"/>
	<path d="M17.765,344.606h184.13c9.811,0,17.764-7.953,17.764-17.765v-53.908c0-9.811-7.953-17.765-17.764-17.765H17.765
		C7.954,255.168,0,263.121,0,272.933v53.908C0,336.652,7.954,344.606,17.765,344.606z"/>
	<path d="M252.537,272.933v53.908c0,9.811,7.953,17.765,17.764,17.765h184.131c9.811,0,17.764-7.953,17.764-17.765v-53.908
		c0-9.811-7.953-17.765-17.764-17.765H270.301C260.49,255.168,252.537,263.121,252.537,272.933z"/>
</g>
<g>
</g>
<g>
</g>
<g>
</g>
<g>
</g>
<g>
</g>
<g>
</g>
<g>
</g>
<g>
</g>
<g>
</g>
<g>
</g>
<g>
</g>
<g>
</g>
<g>
</g>
<g>
</g>
<g>
</g>
</svg>
