<?xml version="1.0" encoding="UTF-8"?>
<svg xmlns="http://www.w3.org/2000/svg" xmlns:xlink="http://www.w3.org/1999/xlink" width="60pt" height="60pt" viewBox="0 0 60 60" version="1.1">
<defs>
<filter id="alpha" filterUnits="objectBoundingBox" x="0%" y="0%" width="100%" height="100%">
  <feColorMatrix type="matrix" in="SourceGraphic" values="0 0 0 0 1 0 0 0 0 1 0 0 0 0 1 0 0 0 1 0"/>
</filter>
<mask id="mask0">
  <g filter="url(#alpha)">
<rect x="0" y="0" width="60" height="60" style="fill:rgb(0%,0%,0%);fill-opacity:0.2;stroke:none;"/>
  </g>
</mask>
<clipPath id="clip1">
  <rect x="0" y="0" width="60" height="60"/>
</clipPath>
<g id="surface5" clip-path="url(#clip1)">
<path style=" stroke:none;fill-rule:nonzero;fill:rgb(100%,100%,100%);fill-opacity:1;" d="M 13.082031 39.214844 C 13.082031 19.652344 29.039062 17.539062 35.898438 17.539062 C 39.246094 17.539062 44.988281 18.210938 49.550781 22.085938 C 44.832031 17.128906 38.285156 16.328125 34.617188 16.328125 C 27.757812 16.328125 11.800781 18.441406 11.800781 38.003906 C 11.800781 44.980469 14.300781 49.441406 17.648438 52.308594 C 14.960938 49.4375 13.082031 45.269531 13.082031 39.214844 Z M 13.082031 39.214844 "/>
</g>
<mask id="mask1">
  <g filter="url(#alpha)">
<rect x="0" y="0" width="60" height="60" style="fill:rgb(0%,0%,0%);fill-opacity:0.101961;stroke:none;"/>
  </g>
</mask>
<clipPath id="clip2">
  <rect x="0" y="0" width="60" height="60"/>
</clipPath>
<g id="surface8" clip-path="url(#clip2)">
<path style=" stroke:none;fill-rule:nonzero;fill:rgb(0%,0%,0%);fill-opacity:1;" d="M 22.425781 43.992188 C 22.425781 35.324219 25.863281 31.445312 29.269531 31.445312 C 31.007812 31.445312 32.222656 31.648438 33.632812 31.886719 C 35.558594 32.214844 37.738281 32.585938 41.816406 32.585938 C 46.675781 32.585938 48.96875 31.53125 50.488281 30.832031 C 51.183594 30.511719 51.640625 30.304688 52.085938 30.304688 C 52.714844 30.304688 53.167969 30.320312 53.605469 30.515625 C 52.417969 28.914062 51.859375 28.878906 50.589844 28.878906 C 50.144531 28.878906 49.6875 29.085938 48.992188 29.40625 C 47.472656 30.105469 45.179688 31.160156 40.320312 31.160156 C 36.242188 31.160156 34.058594 30.789062 32.132812 30.460938 C 30.726562 30.222656 29.507812 30.019531 27.773438 30.019531 C 24.363281 30.019531 20.925781 33.898438 20.925781 42.566406 C 20.925781 47.949219 22.890625 52.324219 26.125 54.894531 C 23.796875 52.265625 22.425781 48.484375 22.425781 43.992188 Z M 22.425781 43.992188 "/>
</g>
<mask id="mask2">
  <g filter="url(#alpha)">
<rect x="0" y="0" width="60" height="60" style="fill:rgb(0%,0%,0%);fill-opacity:0.2;stroke:none;"/>
  </g>
</mask>
<clipPath id="clip3">
  <rect x="0" y="0" width="60" height="60"/>
</clipPath>
<g id="surface11" clip-path="url(#clip3)">
<path style=" stroke:none;fill-rule:nonzero;fill:rgb(100%,100%,100%);fill-opacity:1;" d="M 11.988281 13 C 11.988281 14.417969 10.839844 15.566406 9.421875 15.566406 C 8.003906 15.566406 6.855469 14.417969 6.855469 13 C 6.855469 11.582031 8.003906 10.433594 9.421875 10.433594 C 10.839844 10.433594 11.988281 11.582031 11.988281 13 Z M 11.988281 13 "/>
</g>
<mask id="mask3">
  <g filter="url(#alpha)">
<rect x="0" y="0" width="60" height="60" style="fill:rgb(0%,0%,0%);fill-opacity:0.501961;stroke:none;"/>
  </g>
</mask>
<clipPath id="clip4">
  <rect x="0" y="0" width="60" height="60"/>
</clipPath>
<g id="surface14" clip-path="url(#clip4)">
<path style=" stroke:none;fill-rule:nonzero;fill:rgb(100%,100%,100%);fill-opacity:1;" d="M 13.664062 13.964844 C 13.664062 12.339844 12.347656 11.023438 10.722656 11.023438 C 9.097656 11.023438 7.78125 12.339844 7.78125 13.964844 C 7.78125 15.589844 9.097656 16.90625 10.722656 16.90625 C 12.347656 16.90625 13.664062 15.589844 13.664062 13.964844 Z M 13.664062 13.964844 "/>
</g>
</defs>
<g id="surface1">
<path style=" stroke:none;fill-rule:nonzero;fill:rgb(18.823529%,23.529412%,25.882353%);fill-opacity:1;" d="M 34.617188 14.046875 C 31.226562 14.046875 28.15625 14.488281 25.386719 15.289062 C 24.851562 9.492188 20.015625 4.917969 14.082031 4.917969 C 7.792969 4.917969 2.671875 10.039062 2.671875 16.328125 C 2.671875 21.6875 6.378906 26.160156 11.492188 27.34375 C 10.207031 30.433594 9.519531 33.996094 9.519531 38.003906 C 9.519531 53.984375 21.894531 59.679688 33.476562 59.679688 C 39.402344 59.679688 57.433594 59.679688 57.433594 39.144531 C 57.433594 23.429688 48.902344 14.046875 34.617188 14.046875 Z M 34.617188 14.046875 "/>
<path style=" stroke:none;fill-rule:nonzero;fill:rgb(100%,100%,100%);fill-opacity:1;" d="M 11.800781 38.003906 C 11.800781 18.441406 27.757812 16.328125 34.617188 16.328125 C 39.25 16.328125 48.492188 17.582031 52.816406 26.910156 C 52.171875 26.671875 51.46875 26.59375 50.589844 26.59375 C 49.644531 26.59375 48.898438 26.9375 48.039062 27.335938 C 46.621094 27.984375 44.679688 28.878906 40.320312 28.878906 C 36.433594 28.878906 34.351562 28.523438 32.515625 28.214844 C 31.066406 27.96875 29.699219 27.738281 27.773438 27.738281 C 23.230469 27.738281 18.644531 32.320312 18.644531 42.566406 C 18.644531 48.070312 20.476562 52.65625 23.550781 55.695312 C 17.707031 53.546875 11.800781 48.742188 11.800781 38.003906 Z M 11.800781 38.003906 "/>
<use xlink:href="#surface5" mask="url(#mask0)"/>
<path style=" stroke:none;fill-rule:nonzero;fill:rgb(99.607843%,89.411765%,81.568627%);fill-opacity:1;" d="M 33.476562 57.398438 C 26.085938 57.398438 20.925781 51.300781 20.925781 42.566406 C 20.925781 33.898438 24.363281 30.019531 27.773438 30.019531 C 29.507812 30.019531 30.726562 30.222656 32.132812 30.460938 C 34.058594 30.789062 36.242188 31.160156 40.320312 31.160156 C 45.179688 31.160156 47.472656 30.105469 48.992188 29.40625 C 49.6875 29.085938 50.144531 28.878906 50.589844 28.878906 C 52.101562 28.878906 52.59375 28.898438 54.351562 31.589844 C 54.847656 33.789062 55.152344 36.273438 55.152344 39.144531 C 55.152344 55.507812 42.78125 57.398438 33.476562 57.398438 Z M 33.476562 57.398438 "/>
<use xlink:href="#surface8" mask="url(#mask1)"/>
<path style=" stroke:none;fill-rule:nonzero;fill:rgb(18.823529%,23.529412%,25.882353%);fill-opacity:1;" d="M 31.195312 34.582031 C 30.5625 34.582031 30.054688 35.089844 30.054688 35.722656 L 30.054688 51.695312 C 30.054688 52.324219 30.5625 52.835938 31.195312 52.835938 C 31.824219 52.835938 32.335938 52.324219 32.335938 51.695312 L 32.335938 35.722656 C 32.335938 35.089844 31.824219 34.582031 31.195312 34.582031 Z M 31.195312 34.582031 "/>
<path style=" stroke:none;fill-rule:nonzero;fill:rgb(18.823529%,23.529412%,25.882353%);fill-opacity:1;" d="M 49.457031 33.441406 C 49.453125 33.441406 49.449219 33.441406 49.449219 33.441406 C 48.820312 33.441406 48.3125 33.945312 48.304688 34.574219 C 48.304688 34.671875 48.210938 44.421875 46.09375 50.15625 C 45.878906 50.75 46.179688 51.40625 46.769531 51.625 C 46.902344 51.671875 47.035156 51.695312 47.164062 51.695312 C 47.628906 51.695312 48.066406 51.410156 48.234375 50.949219 C 50.488281 44.839844 50.585938 35.003906 50.589844 34.589844 C 50.59375 33.960938 50.085938 33.445312 49.457031 33.441406 Z M 49.457031 33.441406 "/>
<use xlink:href="#surface11" mask="url(#mask2)"/>
<path style=" stroke:none;fill-rule:nonzero;fill:rgb(94.117647%,38.431373%,57.254902%);fill-opacity:1;" d="M 4.847656 16.328125 C 4.847656 11.296875 8.941406 7.203125 13.976562 7.203125 C 18.867188 7.203125 22.84375 11.082031 23.046875 16.046875 C 21.949219 16.480469 20.898438 16.96875 19.925781 17.53125 C 19.296875 16.796875 18.40625 16.328125 17.398438 16.328125 C 15.511719 16.328125 13.976562 17.863281 13.976562 19.75 C 13.976562 20.519531 14.265625 21.234375 14.738281 21.824219 C 13.847656 22.859375 13.074219 24 12.398438 25.226562 C 8.054688 24.46875 4.847656 20.78125 4.847656 16.328125 Z M 4.847656 16.328125 "/>
<path style=" stroke:none;fill-rule:nonzero;fill:rgb(94.117647%,38.431373%,57.254902%);fill-opacity:1;" d="M 16.371094 20.140625 C 16.316406 20.015625 16.257812 19.890625 16.257812 19.75 C 16.257812 19.121094 16.769531 18.609375 17.398438 18.609375 C 17.628906 18.609375 17.820312 18.691406 17.984375 18.804688 C 17.417969 19.222656 16.882812 19.671875 16.371094 20.140625 Z M 16.371094 20.140625 "/>
<path style=" stroke:none;fill-rule:nonzero;fill:rgb(18.823529%,23.529412%,25.882353%);fill-opacity:1;" d="M 25.292969 16.410156 C 25.292969 10.210938 20.265625 5.183594 14.0625 5.183594 C 7.863281 5.183594 2.835938 10.210938 2.835938 16.410156 C 2.835938 22.613281 7.863281 27.640625 14.0625 27.640625 C 20.265625 27.640625 25.292969 22.613281 25.292969 16.410156 Z M 25.292969 16.410156 "/>
<path style=" stroke:none;fill-rule:nonzero;fill:rgb(94.117647%,38.431373%,57.254902%);fill-opacity:1;" d="M 23.15625 16.359375 C 23.15625 11.308594 19.0625 7.214844 14.011719 7.214844 C 8.960938 7.214844 4.867188 11.308594 4.867188 16.359375 C 4.867188 21.410156 8.960938 25.503906 14.011719 25.503906 C 19.0625 25.503906 23.15625 21.410156 23.15625 16.359375 Z M 23.15625 16.359375 "/>
<path style="fill:none;stroke-width:15;stroke-linecap:butt;stroke-linejoin:miter;stroke:rgb(18.823529%,23.529412%,25.882353%);stroke-opacity:1;stroke-miterlimit:4;" d="M 195.404726 81.823612 C 195.404119 81.691926 181.713728 19.050993 242.907591 16.682351 " transform="matrix(0.0887151,0.0597355,-0.0597355,0.0887151,6.927423,-12.154249)"/>
<use xlink:href="#surface14" mask="url(#mask3)"/>
<path style="fill-rule:nonzero;fill:rgb(18.823529%,23.529412%,25.882353%);fill-opacity:1;stroke-width:15;stroke-linecap:butt;stroke-linejoin:miter;stroke:rgb(18.823529%,23.529412%,25.882353%);stroke-opacity:1;stroke-miterlimit:4;" d="M 255.738456 41.564652 L 286.230701 5.557792 " transform="matrix(0.10376,0.0259333,-0.0259333,0.10376,1.476044,-6.952708)"/>
<path style="fill-rule:nonzero;fill:rgb(18.823529%,23.529412%,25.882353%);fill-opacity:1;stroke-width:15;stroke-linecap:butt;stroke-linejoin:miter;stroke:rgb(18.823529%,23.529412%,25.882353%);stroke-opacity:1;stroke-miterlimit:4;" d="M 262.254833 55.567799 L 292.752029 19.550981 " transform="matrix(0.0595173,0.0888616,-0.0888616,0.0595173,16.501015,-22.877266)"/>
<path style="fill-rule:nonzero;fill:rgb(18.823529%,23.529412%,25.882353%);fill-opacity:1;stroke-width:15;stroke-linecap:butt;stroke-linejoin:miter;stroke:rgb(18.823529%,23.529412%,25.882353%);stroke-opacity:1;stroke-miterlimit:4;" d="M 253.751041 70.568418 L 284.239157 34.569343 " transform="matrix(-0.0231085,0.104426,-0.104426,-0.0231085,40.475152,-21.25408)"/>
</g>
</svg>
