<?xml version="1.0" encoding="UTF-8"?>
<svg xmlns="http://www.w3.org/2000/svg" xmlns:xlink="http://www.w3.org/1999/xlink" width="60pt" height="60pt" viewBox="0 0 60 60" version="1.1">
<g id="surface1">
<path style="fill-rule:nonzero;fill:rgb(18.823529%,23.529412%,25.882353%);fill-opacity:1;stroke-width:15;stroke-linecap:butt;stroke-linejoin:miter;stroke:rgb(18.823529%,23.529412%,25.882353%);stroke-opacity:1;stroke-miterlimit:4;" d="M -2.22793 -0.766992 L 558.735547 -0.766992 L 558.735547 278.235547 L -2.22793 278.235547 Z M -2.22793 -0.766992 " transform="matrix(0.106952,0,0,0.106952,0,0)"/>
<path style="fill-rule:nonzero;fill:rgb(18.823529%,23.529412%,25.882353%);fill-opacity:1;stroke-width:15;stroke-linecap:butt;stroke-linejoin:miter;stroke:rgb(100%,100%,100%);stroke-opacity:1;stroke-miterlimit:4;" d="M -21.000977 284.298437 L 280.244336 284.298437 L 280.244336 419.544727 L -21.000977 419.544727 Z M -21.000977 284.298437 " transform="matrix(0.106952,0,0,0.106952,0,0)"/>
<path style="fill-rule:nonzero;fill:rgb(18.823529%,23.529412%,25.882353%);fill-opacity:1;stroke-width:15;stroke-linecap:butt;stroke-linejoin:miter;stroke:rgb(100%,100%,100%);stroke-opacity:1;stroke-miterlimit:4;" d="M 280.755664 284.298437 L 582.000977 284.298437 L 582.000977 419.544727 L 280.755664 419.544727 Z M 280.755664 284.298437 " transform="matrix(0.106952,0,0,0.106952,0,0)"/>
<path style="fill-rule:nonzero;fill:rgb(18.823529%,23.529412%,25.882353%);fill-opacity:1;stroke-width:15;stroke-linecap:butt;stroke-linejoin:miter;stroke:rgb(100%,100%,100%);stroke-opacity:1;stroke-miterlimit:4;" d="M -166.766016 419.252539 L 134.442773 419.252539 L 134.442773 554.498828 L -166.766016 554.498828 Z M -166.766016 419.252539 " transform="matrix(0.106952,0,0,0.106952,0,0)"/>
<path style="fill-rule:nonzero;fill:rgb(18.823529%,23.529412%,25.882353%);fill-opacity:1;stroke-width:15;stroke-linecap:butt;stroke-linejoin:miter;stroke:rgb(100%,100%,100%);stroke-opacity:1;stroke-miterlimit:4;" d="M 134.990625 419.252539 L 431.195703 419.252539 L 431.195703 554.498828 L 134.990625 554.498828 Z M 134.990625 419.252539 " transform="matrix(0.106952,0,0,0.106952,0,0)"/>
<path style="fill-rule:nonzero;fill:rgb(18.823529%,23.529412%,25.882353%);fill-opacity:1;stroke-width:15;stroke-linecap:butt;stroke-linejoin:miter;stroke:rgb(100%,100%,100%);stroke-opacity:1;stroke-miterlimit:4;" d="M 431.560937 419.252539 L 727.766016 419.252539 L 727.766016 554.498828 L 431.560937 554.498828 Z M 431.560937 419.252539 " transform="matrix(0.106952,0,0,0.106952,0,0)"/>
</g>
</svg>
